<?xml version="1.0" standalone="no"?>
<!DOCTYPE svg PUBLIC "-//W3C//DTD SVG 20010904//EN"
 "http://www.w3.org/TR/2001/REC-SVG-20010904/DTD/svg10.dtd">
<svg version="1.0" xmlns="http://www.w3.org/2000/svg"
 width="768.000000pt" height="275.000000pt" viewBox="0 0 768.000000 275.000000"
 preserveAspectRatio="xMidYMid meet">

<g transform="translate(0.000000,275.000000) scale(0.100000,-0.100000)"
fill="#000000" stroke="none">
<path d="M0 1375 l0 -1375 3840 0 3840 0 0 1375 0 1375 -3840 0 -3840 0 0
-1375z m1560 1111 c81 -27 120 -49 177 -100 72 -65 104 -137 111 -248 7 -128
-23 -218 -124 -368 -48 -71 -72 -116 -65 -118 7 -2 45 -26 84 -53 223 -150
347 -364 347 -595 -1 -297 -183 -532 -495 -635 -69 -23 -76 -23 -617 -27
l-548 -3 0 1086 0 1086 538 -3 c487 -3 542 -6 592 -22z m1844 -4 c160 -60 248
-155 276 -298 25 -128 -15 -254 -134 -429 l-64 -95 81 -53 c116 -76 179 -136
240 -230 56 -85 89 -159 107 -237 15 -68 12 -228 -5 -295 -49 -192 -207 -370
-397 -446 -134 -54 -116 -52 -700 -56 l-548 -4 0 1086 0 1086 543 -3 c531 -4
543 -4 601 -26z m851 17 c55 -16 96 -63 132 -155 26 -66 167 -521 283 -914
132 -447 165 -550 172 -533 9 24 243 805 413 1383 32 107 62 203 67 213 8 15
27 17 178 17 94 0 170 -4 170 -8 0 -5 -21 -76 -46 -158 -25 -82 -81 -268 -125
-414 -44 -146 -93 -305 -109 -355 -15 -49 -58 -187 -94 -305 -35 -118 -112
-370 -170 -559 -58 -189 -106 -350 -106 -358 0 -10 -51 -13 -268 -13 l-268 0
-33 103 c-18 56 -81 251 -141 432 -60 182 -183 560 -275 840 -92 281 -187 570
-211 643 -24 74 -44 138 -44 143 0 13 427 11 475 -2z m2376 -12 c71 -32 82
-60 354 -872 69 -207 404 -1192 419 -1232 l15 -43 -298 0 -298 0 -46 147 c-25
82 -57 184 -70 228 l-24 80 -393 0 -393 0 -8 -25 c-4 -14 -28 -90 -53 -170
-25 -80 -52 -171 -61 -203 l-16 -57 -176 0 c-152 0 -174 2 -169 15 6 17 64
202 119 385 139 453 222 726 242 790 13 41 38 122 55 180 17 58 45 146 60 195
16 50 61 194 99 320 38 127 75 243 80 259 l11 28 258 -4 c211 -3 263 -7 293
-21z"/>
<path d="M950 1435 c0 -432 -1 -788 -2 -792 -5 -13 141 -15 227 -4 282 37 424
280 353 606 -31 143 -112 232 -275 301 -20 9 -16 17 87 171 120 179 141 233
121 308 -14 55 -56 116 -97 144 -62 43 -100 50 -261 51 l-153 0 0 -785z"/>
<path d="M2780 1425 l0 -795 88 0 c186 0 322 47 403 138 76 86 116 225 104
370 -16 208 -107 343 -268 398 l-46 15 108 162 c59 89 113 177 119 196 31 89
-5 195 -86 255 -66 48 -106 56 -274 56 l-148 0 0 -795z"/>
<path d="M6261 2014 c-13 -43 -31 -106 -41 -139 -19 -60 -61 -203 -164 -545
-31 -102 -56 -189 -56 -193 0 -4 131 -7 291 -7 229 0 290 3 286 13 -2 6 -46
149 -97 317 -168 552 -181 595 -189 614 -5 14 -13 -1 -30 -60z"/>
</g>
</svg>
