<?xml version="1.0" standalone="no"?>
<!DOCTYPE svg PUBLIC "-//W3C//DTD SVG 20010904//EN"
 "http://www.w3.org/TR/2001/REC-SVG-20010904/DTD/svg10.dtd">
<svg version="1.0" xmlns="http://www.w3.org/2000/svg"
 width="1050.000000pt" height="525.000000pt" viewBox="0 0 1050.000000 525.000000"
 preserveAspectRatio="xMidYMid meet">

<g transform="translate(0.000000,525.000000) scale(0.100000,-0.100000)"
fill="#000000" stroke="none">
<path d="M9220 3679 c-152 -15 -257 -29 -325 -43 -198 -38 -371 -82 -416 -106
-39 -21 -39 -67 1 -155 5 -11 16 -45 26 -75 9 -30 23 -61 31 -68 16 -17 73
-12 153 12 30 9 73 21 95 26 22 5 69 16 105 25 102 25 137 32 250 50 325 51
450 63 641 64 149 1 153 5 115 99 -51 127 -70 156 -107 169 -39 14 -445 15
-569 2z"/>
<path d="M9890 2875 c-74 -14 -276 -58 -365 -80 -33 -7 -109 -25 -170 -39
-136 -32 -389 -100 -431 -115 -17 -7 -37 -23 -44 -36 -15 -27 -8 -91 15 -140
9 -17 37 -95 65 -174 27 -79 57 -152 66 -162 24 -27 64 -32 114 -13 56 20 202
74 295 108 39 14 79 30 90 35 11 5 54 22 95 36 41 15 89 33 105 40 17 7 86 34
155 60 307 118 298 110 256 237 -46 137 -77 212 -99 236 -23 25 -48 26 -147 7z"/>
<path d="M7810 2663 c-8 -3 -27 -20 -42 -36 -39 -43 -40 -121 -3 -166 52 -61
162 -50 205 21 24 40 25 74 4 117 -28 56 -105 86 -164 64z"/>
<path d="M4569 2615 c-26 -7 -52 -15 -58 -19 -8 -5 -11 -162 -11 -562 l0 -554
95 0 95 0 0 575 0 575 -37 -1 c-21 0 -59 -7 -84 -14z"/>
<path d="M7060 2624 c-8 -3 -34 -12 -57 -20 l-43 -16 0 -543 0 -544 53 -10
c133 -27 227 -33 295 -21 167 31 274 122 326 278 25 73 24 275 0 340 -32 85
-70 134 -129 165 -33 18 -56 22 -130 22 -112 -1 -156 -21 -207 -94 -15 -21
-16 -5 -11 213 l6 236 -44 -1 c-24 0 -51 -3 -59 -5z m342 -543 c38 -43 51
-100 46 -211 -5 -102 -23 -156 -67 -198 -35 -34 -66 -43 -148 -41 l-75 2 4
176 c3 167 4 178 28 216 13 22 30 46 37 53 50 51 131 53 175 3z"/>
<path d="M640 2015 l0 -537 218 4 c185 4 225 8 275 25 97 35 156 85 202 173
25 48 27 190 3 240 -21 44 -87 107 -122 116 -34 8 -41 21 -16 29 58 19 129
120 137 198 12 119 -34 203 -142 257 -49 24 -56 25 -302 28 l-253 4 0 -537z
m401 365 c47 -13 77 -43 85 -85 15 -82 -27 -153 -102 -174 -22 -6 -72 -11
-111 -11 l-73 0 0 140 0 140 83 0 c45 0 98 -5 118 -10z m12 -444 c62 -25 90
-61 94 -119 6 -70 -19 -114 -82 -147 -50 -25 -150 -38 -200 -26 l-25 6 0 150
0 150 90 0 c54 0 104 -6 123 -14z"/>
<path d="M1670 2324 c-47 -6 -157 -33 -185 -46 -20 -9 -21 -14 -14 -51 5 -23
8 -59 9 -79 0 -21 4 -38 8 -38 4 0 35 10 67 21 73 27 198 36 249 19 48 -15 68
-48 70 -112 l1 -53 -60 -3 c-136 -7 -278 -62 -337 -132 -22 -24 -42 -64 -52
-99 -20 -71 -20 -70 0 -139 22 -76 65 -115 150 -138 63 -17 70 -17 130 -1 74
20 123 51 165 103 l29 37 0 -67 0 -66 97 0 96 0 -6 325 c-7 313 -8 326 -31
378 -40 91 -121 134 -266 141 -47 2 -101 2 -120 0z m210 -497 c0 -62 -41 -139
-95 -175 -37 -26 -110 -29 -142 -7 -45 31 -38 130 11 158 41 24 122 45 174 46
48 1 52 -1 52 -22z"/>
<path d="M2610 2324 c-36 -7 -125 -52 -152 -77 -13 -12 -33 -35 -46 -52 l-23
-30 7 73 c3 39 4 72 2 72 -18 0 -129 -23 -155 -33 l-33 -11 0 -393 0 -393 99
0 99 0 4 243 c3 239 3 243 30 297 33 68 44 82 88 109 47 29 101 27 137 -3 l28
-24 3 -311 3 -311 99 0 100 0 0 334 c0 306 -2 338 -19 378 -23 54 -54 89 -99
111 -35 17 -129 28 -172 21z"/>
<path d="M3970 2321 c-118 -13 -248 -106 -300 -214 -36 -74 -50 -139 -50 -237
0 -96 14 -166 45 -225 53 -99 119 -146 240 -171 67 -14 90 -14 146 -5 154 28
264 117 321 262 18 45 22 76 22 184 1 123 -1 134 -29 200 -33 80 -53 106 -110
145 -73 50 -178 72 -285 61z m128 -197 c47 -30 62 -52 78 -116 19 -73 15 -193
-9 -249 -27 -66 -100 -119 -162 -119 -27 0 -93 26 -111 45 -72 72 -84 293 -21
386 32 48 98 80 154 74 25 -2 57 -12 71 -21z"/>
<path d="M5132 2320 c-65 -10 -165 -58 -211 -101 -88 -84 -131 -195 -131 -340
0 -250 88 -369 302 -410 58 -11 77 -10 145 5 168 37 271 136 313 302 40 158
19 303 -61 420 -63 93 -212 145 -357 124z m143 -198 c89 -52 113 -286 41 -400
-27 -43 -96 -82 -144 -82 -15 0 -48 10 -72 23 -36 18 -50 33 -74 81 -25 50
-28 70 -29 147 0 65 5 100 18 131 22 50 85 115 118 120 42 7 112 -3 142 -20z"/>
<path d="M6055 2321 c-74 -19 -132 -59 -182 -126 l-23 -30 7 74 c6 69 5 73
-13 68 -10 -3 -37 -8 -59 -12 -22 -3 -59 -13 -82 -22 l-43 -16 0 -388 0 -389
105 0 105 0 0 228 c0 245 7 288 62 368 41 59 120 90 169 64 46 -25 49 -51 49
-365 l0 -296 103 3 102 3 5 255 c5 244 6 257 29 295 31 55 88 103 128 111 34
6 87 -9 101 -30 4 -6 9 -150 12 -321 l5 -310 103 -3 103 -3 -3 343 -3 343 -28
50 c-42 76 -100 108 -197 108 -55 1 -87 -4 -121 -20 -48 -22 -109 -74 -128
-110 -15 -30 -27 -29 -35 1 -9 36 -53 84 -99 107 -44 23 -126 32 -172 20z"/>
<path d="M8291 2323 c-46 -6 -181 -40 -189 -48 -8 -8 -3 -146 6 -161 5 -9 17
-8 45 6 104 51 272 54 323 5 5 -5 13 -18 17 -28 8 -21 20 -107 15 -108 -2 0
-34 -3 -73 -6 -186 -13 -325 -89 -375 -205 -18 -42 -21 -65 -17 -114 7 -97 61
-162 156 -190 97 -28 213 6 284 85 l37 41 0 -60 0 -60 100 0 99 0 -5 223 c-10
475 -9 472 -67 536 -61 69 -204 102 -356 84z m214 -482 c10 -18 -15 -103 -43
-142 -31 -44 -76 -69 -124 -69 -54 0 -75 10 -93 44 -35 64 4 126 98 155 66 21
152 27 162 12z"/>
<path d="M3244 2296 c-101 -37 -165 -95 -209 -188 -34 -74 -44 -128 -45 -240
0 -122 13 -182 53 -249 73 -122 208 -171 392 -144 136 21 129 14 122 112 -3
46 -6 86 -8 88 -2 2 -29 -3 -59 -11 -207 -54 -321 68 -281 300 22 130 103 195
224 181 32 -3 70 -11 83 -17 13 -6 26 -9 28 -7 2 2 7 43 11 90 l6 85 -39 12
c-67 20 -208 14 -278 -12z"/>
<path d="M7803 2312 c-23 -2 -46 -9 -52 -16 -8 -9 -10 -136 -9 -412 l3 -399
108 -3 107 -3 0 415 0 414 -57 4 c-32 1 -77 2 -100 0z"/>
</g>
</svg>
