<?xml version="1.0" standalone="no"?>
<!DOCTYPE svg PUBLIC "-//W3C//DTD SVG 20010904//EN"
 "http://www.w3.org/TR/2001/REC-SVG-20010904/DTD/svg10.dtd">
<svg version="1.0" xmlns="http://www.w3.org/2000/svg"
 width="600.000000pt" height="154.000000pt" viewBox="0 0 600.000000 154.000000"
 preserveAspectRatio="xMidYMid meet">

<g transform="translate(0.000000,154.000000) scale(0.100000,-0.100000)"
fill="#000000" stroke="none">
<path d="M795 1286 c-82 -39 -179 -88 -215 -108 -36 -20 -96 -53 -135 -73
-111 -59 -145 -99 -145 -174 0 -58 12 -83 93 -190 40 -53 79 -106 87 -118 8
-11 67 -88 130 -170 63 -81 136 -178 162 -214 52 -74 88 -95 145 -86 49 8 48
7 491 490 106 117 106 122 11 237 -40 47 -136 155 -214 240 -78 85 -157 172
-176 192 -19 21 -45 39 -59 42 -17 3 -72 -18 -175 -68z"/>
<path d="M1897 1143 c-10 -9 -8 -766 2 -781 5 -9 25 -12 57 -10 l49 3 5 278 5
278 222 -238 c309 -332 302 -325 321 -321 16 3 17 35 17 398 l0 395 -43 3
c-74 5 -72 12 -72 -282 l0 -261 -58 60 c-31 33 -142 152 -247 265 -104 113
-194 208 -200 212 -13 10 -49 10 -58 1z"/>
<path d="M2905 1138 c-3 -7 -4 -186 -3 -398 l3 -385 215 0 215 0 3 53 c2 37
-1 52 -10 54 -7 0 -17 2 -23 3 -5 2 -72 3 -147 4 l-138 1 0 120 0 119 158 3
157 3 3 49 c2 32 -1 52 -10 57 -7 5 -79 9 -160 9 l-148 0 0 100 0 100 148 0
c81 0 153 4 160 9 9 5 12 25 10 57 l-3 49 -213 3 c-165 2 -214 0 -217 -10z"/>
<path d="M3902 1135 c-76 -21 -109 -41 -173 -102 -158 -151 -164 -409 -12
-561 119 -119 312 -154 455 -81 l39 20 35 -30 c30 -26 43 -31 89 -31 29 0 57
5 61 11 3 6 -17 35 -46 64 l-52 52 35 46 c82 107 92 279 25 411 -80 156 -288
248 -456 201z m182 -109 c180 -54 263 -278 160 -430 l-26 -37 -59 56 c-56 54
-61 56 -106 53 -71 -5 -69 -26 11 -107 l67 -67 -25 -12 c-119 -54 -284 6 -350
127 -122 226 85 490 328 417z"/>
<path d="M4674 1137 c-3 -8 -4 -142 -2 -298 3 -272 4 -286 25 -326 30 -55 84
-106 141 -134 70 -34 179 -32 248 3 65 34 120 91 142 148 15 39 17 83 17 330
l0 285 -55 0 -55 0 -5 -285 c-5 -305 -6 -308 -60 -354 -83 -69 -208 -46 -263
49 -8 13 -14 115 -17 305 l-5 285 -53 3 c-38 2 -54 -1 -58 -11z"/>
<path d="M5575 1138 c-3 -7 -4 -186 -3 -398 l3 -385 55 0 55 0 0 395 0 395
-53 3 c-36 2 -54 -1 -57 -10z"/>
</g>
</svg>
